<svg version="1.1" xmlns="http://www.w3.org/2000/svg" viewBox="0 0 782.2443762781187 163.33333333333348"
     width="782.2443762781187" height="163.33333333333348">
    <rect x="0" y="0" width="782.2443762781187" height="163.33333333333348" fill="#ffffff"/>
    <g stroke-linecap="round"
       transform="translate(10 14.16666666666697) rotate(0 125.57770961145211 64.16666666666674)">
        <path d="M124.84 -0.22 C140.22 -1.36, 157.48 0.82, 172.33 3.85 C187.18 6.88, 202.46 12.14, 213.93 17.96 C225.4 23.79, 234.94 31.12, 241.13 38.8 C247.31 46.47, 250.97 55.69, 251.05 64.01 C251.13 72.33, 247.56 81.21, 241.6 88.71 C235.65 96.2, 226.65 103.01, 215.3 108.97 C203.95 114.93, 188.49 121.32, 173.5 124.46 C158.51 127.59, 141.38 128.05, 125.35 127.8 C109.32 127.55, 92.28 125.88, 77.32 122.96 C62.37 120.04, 46.91 116.04, 35.62 110.27 C24.33 104.5, 15.48 95.94, 9.57 88.32 C3.66 80.71, 0.1 72.82, 0.18 64.57 C0.26 56.33, 3.64 46.65, 10.05 38.83 C16.47 31.01, 27.15 23.51, 38.67 17.65 C50.2 11.8, 61.97 6.5, 79.2 3.7 C96.43 0.9, 128.5 0.91, 142.04 0.87 C155.59 0.83, 160.63 2.34, 160.45 3.44 M89.99 2.27 C104.26 -0.45, 123.47 0.12, 139.68 1.36 C155.89 2.6, 172.92 5.63, 187.26 9.73 C201.61 13.82, 215.99 19.51, 225.73 25.93 C235.47 32.36, 241.45 40.69, 245.71 48.28 C249.96 55.88, 253.05 63.37, 251.24 71.49 C249.42 79.62, 243.12 89.78, 234.8 97.03 C226.48 104.27, 214.25 110.07, 201.34 114.98 C188.42 119.88, 172.54 124.23, 157.31 126.44 C142.07 128.65, 125.89 129.31, 109.93 128.24 C93.96 127.17, 75.45 124.13, 61.53 120 C47.6 115.88, 35.96 110.12, 26.39 103.48 C16.82 96.85, 8.06 88.05, 4.09 80.17 C0.13 72.3, 0.24 64.47, 2.58 56.21 C4.92 47.95, 10.19 37.97, 18.12 30.61 C26.06 23.25, 38.06 16.9, 50.2 12.04 C62.34 7.17, 84.17 2.84, 90.97 1.42 C97.77 0, 90.36 2.48, 91.01 3.53"
              stroke="#000000" stroke-width="1" fill="none"/>
    </g>
    <g transform="translate(99.49999999999994 52.5) rotate(0 32.5 22.5)">
        <text x="32.5" y="32" font-family="Virgil, Segoe UI Emoji" font-size="36px" fill="#000000" text-anchor="middle"
              style="white-space: pre;">New
        </text>
    </g>
    <g stroke-linecap="round"
       transform="translate(499.42229038854794 10) rotate(0 136.41104294478538 71.66666666666674)">
        <path d="M168.55 1.16 C184.53 2.12, 201.07 8.65, 214.57 13.7 C228.06 18.74, 240.41 24.15, 249.51 31.42 C258.6 38.69, 265.73 48.67, 269.13 57.3 C272.52 65.94, 272.52 74.79, 269.87 83.25 C267.21 91.72, 261.74 100.53, 253.22 108.1 C244.7 115.68, 232.34 123.4, 218.72 128.7 C205.11 134.01, 187.87 137.45, 171.56 139.93 C155.24 142.42, 137.32 144.57, 120.84 143.64 C104.36 142.72, 87.46 138.65, 72.68 134.39 C57.9 130.12, 42.89 124.59, 32.16 118.05 C21.43 111.51, 13.62 103.32, 8.31 95.17 C3 87.02, -0.47 78.12, 0.29 69.16 C1.05 60.19, 6.04 49.72, 12.86 41.38 C19.68 33.05, 29.17 25.26, 41.22 19.14 C53.28 13.03, 69.61 8, 85.2 4.71 C100.8 1.43, 118.81 -0.49, 134.82 -0.58 C150.83 -0.68, 171.67 2.6, 181.25 4.13 C190.83 5.66, 193 7.6, 192.29 8.6 M182.97 5.05 C198.7 6.82, 214.92 12.46, 227.44 18.48 C239.96 24.49, 250.65 33.25, 258.08 41.15 C265.51 49.05, 270.77 57.4, 272.03 65.86 C273.3 74.32, 270.74 83.45, 265.67 91.9 C260.6 100.34, 251.74 109.51, 241.63 116.51 C231.51 123.51, 219.49 129.71, 205 133.9 C190.51 138.08, 171.21 140.21, 154.69 141.63 C138.17 143.06, 122.18 144.5, 105.9 142.46 C89.61 140.42, 70.68 134.62, 56.99 129.42 C43.3 124.22, 32.7 118.63, 23.76 111.26 C14.82 103.9, 6.84 93.93, 3.34 85.22 C-0.17 76.52, -0.26 67.34, 2.73 59.05 C5.73 50.76, 12.42 43.13, 21.29 35.49 C30.16 27.85, 42.93 18.92, 55.94 13.2 C68.95 7.49, 83.36 3.58, 99.37 1.21 C115.37 -1.17, 138 -1.54, 151.99 -1.04 C165.97 -0.54, 178 3.14, 183.3 4.19 C188.61 5.25, 184.56 4.12, 183.82 5.29"
              stroke="#000000" stroke-width="1" fill="none"/>
    </g>
    <g transform="translate(549.8333333333333 61.66666666666674) rotate(0 88.5 22.5)">
        <text x="88.5" y="32" font-family="Virgil, Segoe UI Emoji" font-size="36px" fill="#000000" text-anchor="middle"
              style="white-space: pre;" direction="ltr">Committed
        </text>
    </g>
    <g stroke-linecap="round">
        <g transform="translate(263.3333333333333 175.66515356492096) rotate(0 116.10200949224328 -127.35839382218342)">
            <path d="M-1.19 -113.67 C17.3 -117.8, 71.65 -137.6, 110.75 -139.29 C149.85 -140.98, 213.06 -126.41, 233.4 -123.8 M0.38 -114.14 C18.8 -118.64, 71.48 -139.6, 110.19 -141.05 C148.9 -142.49, 212.24 -125.86, 232.66 -122.81"
                  stroke="#000000" stroke-width="1" fill="none"/>
        </g>
        <g transform="translate(263.3333333333333 175.66515356492096) rotate(0 116.10200949224328 -127.35839382218342)">
            <path d="M204.84 -116.96 C212.53 -119.11, 218.66 -121.45, 231.91 -124.61 M203.63 -119.11 C210.49 -118.82, 216.19 -120.82, 231.75 -123.45"
                  stroke="#000000" stroke-width="1" fill="none"/>
        </g>
        <g transform="translate(263.3333333333333 175.66515356492096) rotate(0 116.10200949224328 -127.35839382218342)">
            <path d="M208.82 -137.09 C215.43 -133.61, 220.43 -130.29, 231.91 -124.61 M207.6 -139.24 C213.64 -134.18, 218.38 -131.38, 231.75 -123.45"
                  stroke="#000000" stroke-width="1" fill="none"/>
        </g>
    </g>
</svg>