<svg version="1.0" xmlns="http://www.w3.org/2000/svg"
 width="614.000000pt" height="301.000000pt" viewBox="0 0 614.000000 301.000000"
 preserveAspectRatio="xMidYMid meet">

<g transform="translate(0.000000,301.000000) scale(0.100000,-0.100000)"
fill="#000000" stroke="none">
<path d="M3058 2858 c-25 -29 -139 -170 -254 -313 -114 -143 -303 -377 -418
-520 -115 -143 -468 -584 -784 -980 -316 -396 -586 -730 -599 -743 -14 -13
-22 -26 -18 -30 4 -4 957 -7 2119 -7 l2113 0 -20 28 c-25 32 -43 36 -26 5 l11
-21 -1983 7 c-1091 4 -2026 7 -2076 7 -51 0 -93 4 -93 8 0 4 82 108 183 232
170 210 360 448 1462 1827 234 292 427 533 429 535 2 1 60 -70 131 -158 70
-88 140 -176 155 -195 34 -42 908 -1138 1065 -1335 61 -77 190 -239 285 -360
350 -444 392 -495 401 -495 5 0 -34 55 -88 123 -238 299 -495 623 -592 746
-58 74 -140 178 -182 230 -42 53 -213 269 -381 481 -449 568 -782 980 -792
980 -2 0 -24 -24 -48 -52z m-1415 -2585 c-117 -2 -309 -2 -425 0 -117 1 -22 2
212 2 234 0 329 -1 213 -2z"/>
<path d="M3082 2228 c-14 -14 -17 -1094 -4 -1116 7 -10 12 -8 25 6 15 16 16
72 17 560 1 297 -1 546 -5 552 -8 13 -18 13 -33 -2z"/>
<path d="M3070 959 c-48 -10 -80 -50 -80 -99 0 -32 6 -43 33 -64 39 -30 72
-33 107 -10 40 27 50 45 50 89 0 64 -45 98 -110 84z m60 -64 c17 -21 -14 -75
-44 -75 -35 0 -59 31 -47 63 14 36 65 43 91 12z"/>
</g>
</svg>
